<?xml version="1.0" encoding="UTF-8"?>
<svg id="Layer_2" xmlns="http://www.w3.org/2000/svg" viewBox="0 0 982.78 333.97">
  <g id="Layer_1-2" data-name="Layer_1">
    <g>
      <path d="M299.32,249.91l-.81-.6-124.98-92.87c-3.89-2.89-9.21-2.89-13.1,0l-25.62,19.02c-.72-2.74-1.1-5.57-1.1-8.47,0-12.07,6.39-23.15,17.55-29.4,4.76-2.66,10.2-3.86,15.66-3.86h.06c7.33,0,14.23,2.33,19.89,6.58,4.46,3.34,10.63,3.88,15.17.65,6.8-4.84,6.94-14.82.38-19.89-2.8-2.17-5.8-4.08-8.95-5.7-8.13-4.18-17.29-6.39-26.49-6.39h-.01c-18.9,0-36.42,8.98-47.7,24.91-5.1,7.21-8.42,15.59-9.69,24.33-1.66,11.44-.05,22.63,4.48,32.65l-2.41,1.79-32.32-24.02s-.01-.02-.02-.04c-.43-24.02,8.73-46.67,25.68-63.6,16.56-16.55,38.57-25.67,61.98-25.67h.02c24.42,0,47.06,9.82,63.55,27.26,4.24,4.48,11.23,4.94,16.15,1.21h0c5.9-4.47,6.68-13.13,1.56-18.48-8.67-9.05-18.84-16.67-29.94-22.38-15.75-8.1-33.49-12.38-51.31-12.38h-.02c-30.02,0-58.25,11.69-79.49,32.92-21.24,21.23-32.94,49.46-32.94,79.5,0,.67.03,1.35.04,2.02l-28.04,20.55c-1.57-9.92-2.13-20.09-1.58-30.4,1.72-32.26,14.54-63.16,36.16-87.16,27.37-30.38,65.32-47.23,105.86-47.23h.03c41.57,0,79.96,17.55,106.98,48.51,4.26,4.88,11.53,5.72,16.72,1.84h.01c5.82-4.36,6.62-12.73,1.83-18.19-13.86-15.78-30.71-28.96-49.33-38.53C219.83,6.36,193.48,0,167.02,0h-.03c-22.53,0-44.39,4.41-64.97,13.12-19.89,8.41-37.75,20.44-53.08,35.77-15.33,15.33-27.38,33.18-35.79,53.07C4.42,122.55,0,144.42,0,166.96c0,22.54,4.41,44.41,13.12,65,8.41,19.89,20.44,37.75,35.77,53.08,15.33,15.33,33.18,27.38,53.07,35.79,20.59,8.71,42.46,13.13,65,13.14h.03c26.46,0,52.8-6.35,76.19-18.36,22.62-11.62,42.63-28.57,57.85-49.02l.6-.81c3.74-5.02,2.71-12.13-2.3-15.88ZM40.48,232.12c-1.72-3.34-3.31-6.75-4.75-10.22-1.58-3.78-.32-8.16,2.99-10.58l23.87-17.49c2.74-2.01,6.47-2,9.2.03l14.76,10.97c2.17,1.61,2.17,4.86,0,6.47l-32.31,23.99c-4.58,3.4-11.15,1.91-13.76-3.17ZM268.76,266.39c-26.64,27.42-62.81,42.83-101.77,42.83h-.13c-37.69,0-73.83-14.99-100.45-41.66h0c-3.16-3.17-2.77-8.4.82-11.07l94.07-69.86c3.37-2.5,7.99-2.5,11.36,0l95.37,70.87c2.87,2.13,3.22,6.32.73,8.89Z"/>
      <path d="M229.22,248.63l-55.71-41.47c-2.68-2-6.53-.4-7.01,2.91l-8.24,56.96c-.57,3.96,4,6.58,7.13,4.08l24.16-19.31c.99-.79,2.26-1.12,3.51-.9l32.78,5.63c4.58.79,7.11-5.12,3.39-7.9Z"/>
      <path d="M451.33,107.87h-20.61c-.73,0-1.34.52-1.49,1.24-1.24,5.66-4.2,10.14-8.91,13.46-5.04,3.56-11.22,5.33-18.52,5.33-4.81,0-9.08-.79-12.82-2.38-3.75-1.59-6.89-3.89-9.44-6.92-2.55-3.03-4.47-6.58-5.76-10.66-1.3-4.08-1.95-8.57-1.95-13.47s.65-9.53,1.95-13.62c1.3-4.08,3.17-7.61,5.62-10.59,2.45-2.98,5.5-5.28,9.15-6.92,3.65-1.63,7.83-2.45,12.54-2.45s8.96.82,12.75,2.45c3.79,1.63,6.89,3.94,9.29,6.92,2.16,2.68,3.62,5.86,4.38,9.55.15.72.76,1.26,1.5,1.26h20.78c.92,0,1.65-.81,1.54-1.72-.95-7.74-3.45-14.54-7.53-20.4-4.37-6.29-10.21-11.21-17.51-14.77-7.3-3.55-15.71-5.33-25.22-5.33s-17.03,1.56-23.7,4.68c-6.68,3.12-12.2,7.28-16.57,12.46-4.37,5.19-7.61,10.98-9.73,17.36-2.11,6.39-3.17,12.85-3.17,19.38v3.17c0,5.96,1.03,12.08,3.1,18.37,2.06,6.29,5.26,12.15,9.58,17.58,4.32,5.43,9.89,9.8,16.71,13.11,6.82,3.31,14.99,4.97,24.5,4.97,10.09,0,18.8-1.9,26.15-5.69,7.35-3.79,13.16-8.88,17.44-15.27,3.95-5.9,6.44-12.35,7.48-19.35.14-.92-.6-1.76-1.54-1.76Z"/>
      <path d="M516.57,70.41c-5.53-2.31-12.32-3.46-20.39-3.46-2.79,0-5.76.05-8.93.14-3.17.1-6.25.24-9.22.43-2.37.15-4.5.31-6.38.46-.8.06-1.4.73-1.4,1.53v16.4c0,.89.74,1.59,1.62,1.54,2.54-.16,5.32-.32,8.32-.47,3.65-.19,7.21-.34,10.66-.43,3.46-.09,6.24-.14,8.36-.14,4.23,0,7.3,1.01,9.22,3.03,1.92,2.02,2.88,5.04,2.88,9.08v.29h-14.26c-7.01,0-13.21.89-18.59,2.67-5.38,1.78-9.56,4.52-12.54,8.21-2.98,3.7-4.47,8.43-4.47,14.19,0,5.28,1.2,9.82,3.6,13.62,2.4,3.8,5.74,6.7,10.01,8.72,4.27,2.02,9.24,3.03,14.91,3.03s10.11-1.01,13.9-3.03c3.79-2.02,6.77-4.9,8.93-8.65.97-1.67,1.75-3.54,2.38-5.56v13.67c0,.85.69,1.54,1.54,1.54h15.22c.85,0,1.54-.69,1.54-1.54v-46.88c0-7.3-1.44-13.28-4.32-17.94-2.88-4.66-7.09-8.14-12.61-10.45ZM509.01,127.18c-1.35,2.21-3.05,3.77-5.12,4.68-2.07.91-4.39,1.37-6.99,1.37-4.04,0-7.13-.98-9.29-2.95-2.16-1.97-3.24-4.54-3.24-7.71,0-3.36,1.08-6.03,3.24-8,2.16-1.97,5.26-2.95,9.29-2.95h14.41v8.86c-.15.19-.27.42-.32.7-.37,2.44-1.04,4.43-1.99,6Z"/>
      <path d="M556.7,142.74c6.34,4.61,15.13,6.92,26.37,6.92,7.11,0,13.3-1.03,18.59-3.1,5.28-2.06,9.37-5.04,12.25-8.93,2.88-3.89,4.32-8.48,4.32-13.76,0-7.3-2.69-13.11-8.07-17.44-5.38-4.32-12.92-7.01-22.62-8.07l-6.2-.58c-4.13-.48-7.11-1.3-8.93-2.45-1.83-1.15-2.74-2.83-2.74-5.04s1.06-4.13,3.17-5.48c2.11-1.34,4.95-2.02,8.5-2.02,4.51,0,7.93.89,10.23,2.67,1.98,1.52,3.25,3.35,3.81,5.47.18.66.82,1.09,1.5,1.09h17.55c.89,0,1.61-.75,1.54-1.63-.63-7.66-3.87-13.57-9.7-17.75-6.25-4.47-14.46-6.7-24.64-6.7-6.34,0-11.98.96-16.93,2.88-4.95,1.92-8.81,4.76-11.6,8.5-2.79,3.75-4.18,8.41-4.18,13.98,0,6.73,2.38,12.25,7.13,16.57,4.75,4.32,11.89,6.97,21.4,7.93l6.2.58c5.19.58,8.79,1.56,10.81,2.95,2.02,1.39,3.03,3.24,3.03,5.55,0,2.59-1.32,4.59-3.96,5.98-2.64,1.39-5.98,2.09-10.01,2.09-5.28,0-9.25-.98-11.89-2.95-2.27-1.69-3.7-3.57-4.31-5.65-.19-.65-.83-1.05-1.51-1.05h-17.53c-.9,0-1.63.77-1.54,1.66.73,7.56,4.06,13.49,9.97,17.79Z"/>
      <path d="M638.26,137.41c3.36,3.84,7.56,6.89,12.61,9.15,5.04,2.26,10.97,3.39,17.8,3.39s13.45-1.37,19.02-4.11c5.57-2.74,10.04-6.58,13.4-11.53,3.07-4.52,4.86-9.71,5.37-15.57.08-.89-.65-1.65-1.55-1.65h-19.51c-.76,0-1.38.56-1.51,1.31-.38,2.06-1.11,3.9-2.18,5.53-1.3,1.97-3.03,3.51-5.19,4.61-2.16,1.11-4.78,1.66-7.85,1.66-4.13,0-7.47-.94-10.01-2.81-2.55-1.87-4.39-4.51-5.55-7.93-1.15-3.41-1.73-7.23-1.73-11.46,0-4.61.62-8.6,1.87-11.96,1.25-3.36,3.15-6,5.69-7.93,2.54-1.92,5.74-2.88,9.58-2.88,4.61,0,8.14,1.22,10.59,3.67,2.14,2.14,3.49,4.71,4.06,7.7.14.75.75,1.31,1.51,1.31h19.62c.9,0,1.63-.78,1.54-1.68-.58-5.66-2.36-10.72-5.34-15.18-3.27-4.9-7.64-8.72-13.11-11.46-5.48-2.74-11.77-4.11-18.88-4.11-6.53,0-12.32,1.1-17.36,3.31-5.04,2.21-9.25,5.24-12.61,9.08-3.36,3.84-5.91,8.24-7.64,13.18-1.73,4.95-2.59,10.11-2.59,15.49v2.74c0,5.19.82,10.21,2.45,15.06,1.63,4.85,4.13,9.2,7.49,13.04Z"/>
      <path d="M787.25,98.8c0-7.3-1.44-13.28-4.32-17.94-2.88-4.66-7.09-8.14-12.61-10.45-5.53-2.31-12.32-3.46-20.39-3.46-2.79,0-5.76.05-8.93.14-3.17.1-6.25.24-9.22.43-2.37.15-4.5.31-6.38.46-.8.06-1.4.73-1.4,1.53v16.4c0,.89.74,1.59,1.62,1.54,2.54-.16,5.32-.32,8.32-.47,3.65-.19,7.21-.34,10.66-.43,3.46-.09,6.24-.14,8.36-.14,4.23,0,7.3,1.01,9.22,3.03,1.92,2.02,2.88,5.04,2.88,9.08v.29h-14.26c-7.01,0-13.21.89-18.59,2.67-5.38,1.78-9.56,4.52-12.54,8.21-2.98,3.7-4.47,8.43-4.47,14.19,0,5.28,1.2,9.82,3.6,13.62,2.4,3.8,5.74,6.7,10.01,8.72,4.27,2.02,9.24,3.03,14.91,3.03s10.11-1.01,13.9-3.03c3.79-2.02,6.77-4.9,8.93-8.65.97-1.67,1.75-3.54,2.38-5.56v13.67c0,.85.69,1.54,1.54,1.54h15.22c.85,0,1.54-.69,1.54-1.54v-46.88ZM762.75,127.18c-1.35,2.21-3.05,3.77-5.12,4.68-2.07.91-4.39,1.37-6.99,1.37-4.04,0-7.13-.98-9.29-2.95-2.16-1.97-3.24-4.54-3.24-7.71,0-3.36,1.08-6.03,3.24-8,2.16-1.97,5.26-2.95,9.29-2.95h14.41v8.86c-.15.19-.27.42-.32.7-.37,2.44-1.04,4.43-1.99,6Z"/>
      <path d="M885.71,42.02h-20.12c-.85,0-1.54.69-1.54,1.54v35.5c-2.39-3.82-5.41-6.83-9.08-9.01-4.61-2.74-10.09-4.11-16.43-4.11-5.57,0-10.62,1.03-15.13,3.1-4.52,2.07-8.38,4.95-11.6,8.65-3.22,3.7-5.67,8-7.35,12.9-1.68,4.9-2.52,10.18-2.52,15.85v3.31c0,5.67.89,10.95,2.67,15.85,1.78,4.9,4.35,9.15,7.71,12.75,3.36,3.6,7.32,6.41,11.89,8.43,4.56,2.02,9.63,3.03,15.2,3.03,6.24,0,11.77-1.37,16.57-4.11,4.8-2.74,8.62-6.75,11.46-12.03.56-1.05,1.05-2.16,1.51-3.3v15.31c0,.85.69,1.54,1.54,1.54h15.22c.85,0,1.54-.69,1.54-1.54V43.56c0-.85-.69-1.54-1.54-1.54ZM864.63,110.04c0,4.32-.89,8.02-2.67,11.09-1.78,3.08-4.13,5.4-7.06,6.99-2.93,1.58-6.17,2.38-9.73,2.38-3.84,0-7.3-.91-10.37-2.74-3.08-1.82-5.48-4.42-7.21-7.78-1.73-3.36-2.59-7.35-2.59-11.96s.86-8.48,2.59-11.89c1.73-3.41,4.11-6.1,7.13-8.07,3.03-1.97,6.46-2.95,10.3-2.95,3.46,0,6.67.77,9.65,2.31,2.98,1.54,5.38,3.75,7.2,6.63,1.82,2.88,2.74,6.44,2.74,10.66v5.33Z"/>
      <path d="M978.17,86.04c-3.08-6.1-7.52-11.05-13.33-14.84-5.81-3.79-12.95-5.69-21.4-5.69-6.44,0-12.18,1.13-17.22,3.39-5.04,2.26-9.25,5.31-12.61,9.15-3.36,3.84-5.93,8.19-7.71,13.04-1.78,4.85-2.67,9.92-2.67,15.2v2.88c0,5.09.89,10.06,2.67,14.91,1.78,4.85,4.37,9.22,7.78,13.11,3.41,3.89,7.68,6.99,12.82,9.29,5.14,2.31,11.07,3.46,17.8,3.46s12.49-1.15,17.58-3.46c5.09-2.31,9.32-5.52,12.68-9.65,2.95-3.63,5.05-7.7,6.3-12.21.27-.96-.5-1.91-1.5-1.91h-18.23c-.6,0-1.12.36-1.39.9-1.03,2.01-2.72,3.73-5.07,5.16-2.69,1.63-6.15,2.45-10.37,2.45-4.61,0-8.36-.96-11.24-2.88-2.88-1.92-5-4.63-6.34-8.14-.75-1.95-1.26-4.1-1.6-6.41h56.11c.85,0,1.54-.69,1.54-1.54v-6.24c0-7.2-1.54-13.86-4.61-19.96ZM926.88,94.98c1.44-3.51,3.55-6.17,6.34-8,2.79-1.82,6.2-2.74,10.23-2.74s7.23.89,9.87,2.67c2.64,1.78,4.63,4.35,5.98,7.71.73,1.82,1.24,3.84,1.58,6.05h-35.58c.36-2.08.88-3.98,1.59-5.69Z"/>
      <path d="M436.24,168.89h-79.78c-.85,0-1.54.69-1.54,1.54v17.53c0,.85.69,1.54,1.54,1.54h28v83.04c0,.85.69,1.54,1.54,1.54h20.55c.85,0,1.54-.69,1.54-1.54v-83.04h28.14c.85,0,1.54-.69,1.54-1.54v-17.53c0-.85-.69-1.54-1.54-1.54Z"/>
      <path d="M498.73,192.67h-1.01c-5.96,0-10.9,1.42-14.84,4.25-3.68,2.64-6.5,6.45-8.5,11.39v-37.88c0-.85-.69-1.54-1.54-1.54h-19.98c-.85,0-1.54.69-1.54,1.54v102.11c0,.85.69,1.54,1.54,1.54h19.98c.85,0,1.54-.69,1.54-1.54v-43.99c0-4.61,1.32-8.31,3.96-11.09,2.64-2.79,6.12-4.18,10.45-4.18s7.47,1.32,10.01,3.96c2.54,2.64,3.82,6.12,3.82,10.45v44.86c0,.85.69,1.54,1.54,1.54h19.98c.85,0,1.54-.69,1.54-1.54v-43.42c0-11.91-2.31-20.97-6.92-27.16-4.61-6.2-11.29-9.29-20.03-9.29Z"/>
      <path d="M601.97,198.07c-5.81-3.79-12.95-5.69-21.4-5.69-6.44,0-12.18,1.13-17.22,3.39-5.04,2.26-9.25,5.31-12.61,9.15-3.36,3.84-5.93,8.19-7.71,13.04-1.78,4.85-2.67,9.92-2.67,15.2v2.88c0,5.09.89,10.06,2.67,14.91,1.78,4.85,4.37,9.22,7.78,13.11,3.41,3.89,7.68,6.99,12.82,9.29,5.14,2.31,11.07,3.46,17.8,3.46s12.49-1.15,17.58-3.46c5.09-2.31,9.32-5.52,12.68-9.65,2.95-3.63,5.05-7.7,6.3-12.21.27-.96-.5-1.91-1.5-1.91h-18.23c-.6,0-1.12.36-1.39.9-1.03,2.01-2.72,3.73-5.07,5.16-2.69,1.63-6.15,2.45-10.37,2.45-4.61,0-8.36-.96-11.24-2.88-2.88-1.92-5-4.63-6.34-8.14-.75-1.95-1.26-4.1-1.6-6.41h56.11c.85,0,1.54-.69,1.54-1.54v-6.24c0-7.2-1.54-13.86-4.61-19.96-3.08-6.1-7.52-11.05-13.33-14.84ZM564,221.85c1.44-3.51,3.55-6.17,6.34-8,2.79-1.82,6.2-2.74,10.23-2.74s7.23.89,9.87,2.67c2.64,1.78,4.63,4.35,5.98,7.71.73,1.82,1.24,3.84,1.58,6.05h-35.58c.36-2.08.88-3.98,1.59-5.69Z"/>
      <path d="M705.5,204.48c-3.75-3.75-8.29-6.7-13.62-8.86-5.33-2.16-11.41-3.24-18.23-3.24s-12.63,1.08-18.01,3.24c-5.38,2.16-9.97,5.12-13.76,8.86-3.8,3.75-6.68,8.09-8.65,13.04-1.97,4.95-2.95,10.16-2.95,15.63v3.31c0,5.38.96,10.5,2.88,15.35,1.92,4.85,4.73,9.15,8.43,12.9,3.7,3.75,8.24,6.7,13.62,8.86,5.38,2.16,11.53,3.24,18.44,3.24s13.21-1.08,18.59-3.24c5.38-2.16,9.92-5.12,13.62-8.86,3.7-3.75,6.51-8.04,8.43-12.9,1.92-4.85,2.88-9.96,2.88-15.35v-3.31c0-5.48-1.01-10.69-3.03-15.63-2.02-4.95-4.9-9.29-8.65-13.04ZM691.74,246.42c-1.58,3.46-3.87,6.15-6.84,8.07-2.98,1.92-6.73,2.88-11.24,2.88s-8.02-.96-11.1-2.88c-3.08-1.92-5.38-4.61-6.92-8.07-1.54-3.46-2.31-7.3-2.31-11.53,0-4.51.79-8.48,2.38-11.89,1.58-3.41,3.91-6.12,6.99-8.14,3.07-2.02,6.72-3.03,10.95-3.03s8,1.01,11.02,3.03c3.03,2.02,5.35,4.73,6.99,8.14,1.63,3.41,2.45,7.37,2.45,11.89,0,4.23-.79,8.07-2.38,11.53Z"/>
      <path d="M780.47,194.11h-1.49c-9.03,0-15.92,3.03-20.68,9.08-3.59,4.57-5.82,10.6-6.7,18.07v-24.6c0-.85-.69-1.54-1.54-1.54h-15.22c-.85,0-1.54.69-1.54,1.54v75.89c0,.85.69,1.54,1.54,1.54h19.98c.85,0,1.54-.69,1.54-1.54v-38.66c0-6.43,1.73-11.36,5.19-14.77,3.46-3.41,8.36-5.12,14.7-5.12h4.22c.85,0,1.54-.69,1.54-1.54v-16.81c0-.85-.69-1.54-1.54-1.54Z"/>
      <path d="M864.46,195.12h-18.7c-.71,0-1.33.49-1.5,1.18l-13.99,58.04h-2.88l-17.24-58.12c-.19-.65-.79-1.1-1.48-1.1h-19.95c-1.04,0-1.78,1.01-1.47,2l23.24,74.16c.2.64.8,1.08,1.47,1.08h13.97l-.83,3.46c-.67,2.5-1.54,4.47-2.59,5.91-1.06,1.44-2.45,2.47-4.18,3.1-1.73.62-3.84.94-6.34.94h-14.89c-.85,0-1.54.69-1.54,1.54v16.52c0,.85.69,1.54,1.54,1.54h12.58c7.01,0,12.8-.79,17.36-2.38,4.56-1.59,8.21-4.2,10.95-7.85,2.74-3.65,4.87-8.55,6.41-14.7l21.55-83.38c.25-.97-.48-1.92-1.49-1.92Z"/>
    </g>
  </g>
</svg>