<?xml version="1.0" encoding="UTF-8"?>
<svg id="Layer_2" xmlns="http://www.w3.org/2000/svg" viewBox="0 0 871.89 314.35">
  <defs>
    <style>
      .cls-1 {
        fill: #fff;
      }

      .cls-2 {
        fill: #1a6172;
      }

      .cls-3 {
        fill: #e86c46;
      }
    </style>
  </defs>
  <g id="Layer_1-2" data-name="Layer_1">
    <g>
      <circle class="cls-1" cx="157.17" cy="157.17" r="157.17"/>
      <g>
        <path class="cls-1" d="M381.31,139.6c-5.89,0-11.02-.98-15.37-2.92-4.36-1.95-7.99-4.59-10.89-7.91-2.91-3.32-5.06-7.07-6.47-11.26-1.41-4.19-2.12-8.53-2.12-13.01v-2.37c0-4.65.75-9.11,2.24-13.38,1.49-4.27,3.69-8.07,6.6-11.39,2.9-3.32,6.54-5.93,10.89-7.84,4.36-1.91,9.36-2.86,15-2.86,6.14,0,11.58,1.18,16.31,3.55,4.73,2.37,8.5,5.66,11.33,9.9,2.54,3.81,4.07,8.12,4.59,12.94.09.87-.61,1.62-1.49,1.62h-16.65c-.73,0-1.32-.54-1.46-1.26-.5-2.53-1.66-4.7-3.48-6.52-2.12-2.12-5.17-3.17-9.15-3.17-3.32,0-6.08.83-8.28,2.49s-3.84,3.94-4.92,6.85c-1.08,2.91-1.62,6.35-1.62,10.33,0,3.65.5,6.95,1.49,9.9s2.59,5.23,4.79,6.85c2.2,1.62,5.08,2.43,8.65,2.43,2.66,0,4.92-.48,6.78-1.43,1.87-.95,3.36-2.28,4.48-3.98.9-1.37,1.53-2.93,1.86-4.65.14-.72.73-1.26,1.46-1.26h16.55c.86,0,1.57.74,1.49,1.6-.45,4.99-2,9.41-4.62,13.28-2.91,4.27-6.76,7.59-11.58,9.96-4.81,2.36-10.29,3.55-16.43,3.55Z"/>
        <path class="cls-1" d="M446.16,138.97c-4.9,0-9.19-.87-12.88-2.61-3.69-1.74-6.58-4.25-8.65-7.53-2.08-3.28-3.11-7.2-3.11-11.76,0-4.98,1.29-9.07,3.86-12.26,2.57-3.19,6.18-5.56,10.83-7.1,4.65-1.53,10-2.3,16.06-2.3h13.08c.82,0,1.48.66,1.48,1.48v8.12c0,.82-.66,1.48-1.48,1.48h-13.21c-3.49,0-6.16.85-8.03,2.55-1.87,1.7-2.8,4.01-2.8,6.91,0,2.74.93,4.96,2.8,6.66,1.87,1.7,4.54,2.55,8.03,2.55,2.24,0,4.25-.39,6.04-1.18,1.78-.79,3.26-2.14,4.42-4.05.78-1.27,1.33-2.88,1.66-4.82.21-1.23,1.69-1.72,2.54-.82l2.04,2.15c.3.32.45.76.41,1.2-.46,4.43-1.58,8.18-3.36,11.26-1.87,3.24-4.44,5.73-7.72,7.47-3.28,1.74-7.28,2.61-12.01,2.61ZM467.95,135.75v-17.2c0-.82-.66-1.48-1.48-1.48h-.4c-.82,0-1.48-.66-1.48-1.48v-20.43c0-3.49-.83-6.1-2.49-7.84-1.66-1.74-4.32-2.61-7.97-2.61-1.83,0-4.23.04-7.22.12-2.99.08-6.06.21-9.21.37-2.53.13-4.87.27-7.02.4-.85.05-1.57-.62-1.57-1.48v-13.86c0-.77.59-1.42,1.35-1.48,1.59-.13,3.38-.26,5.37-.38,2.57-.17,5.23-.29,7.97-.37,2.74-.08,5.31-.12,7.72-.12,6.97,0,12.84,1,17.62,2.99,4.77,1.99,8.4,5,10.89,9.02,2.49,4.03,3.74,9.19,3.74,15.5v40.34c0,.82-.66,1.48-1.48,1.48h-12.84c-.82,0-1.48-.66-1.48-1.48Z"/>
        <path class="cls-1" d="M526.58,139.35c-9.71,0-17.3-1.99-22.78-5.97-5.07-3.69-7.93-8.75-8.6-15.21-.09-.86.62-1.6,1.48-1.6h14.91c.62,0,1.21.38,1.39.98.53,1.77,1.77,3.37,3.7,4.81,2.28,1.7,5.71,2.55,10.27,2.55,3.48,0,6.37-.6,8.65-1.8,2.28-1.2,3.42-2.92,3.42-5.16,0-1.99-.87-3.59-2.61-4.79-1.74-1.2-4.85-2.05-9.34-2.55l-5.35-.5c-8.21-.83-14.38-3.11-18.49-6.85-4.11-3.74-6.16-8.51-6.16-14.32,0-4.81,1.2-8.84,3.61-12.07,2.4-3.24,5.75-5.68,10.02-7.34,4.27-1.66,9.15-2.49,14.63-2.49,8.8,0,15.89,1.93,21.29,5.79,5,3.58,7.79,8.63,8.37,15.16.08.85-.63,1.58-1.48,1.58h-14.98c-.65,0-1.17-.46-1.35-1.09-.51-1.77-1.59-3.29-3.25-4.57-1.99-1.53-4.94-2.3-8.84-2.3-3.07,0-5.52.58-7.34,1.74-1.83,1.16-2.74,2.74-2.74,4.73s.79,3.36,2.37,4.36c1.57,1,4.15,1.7,7.72,2.12l5.35.5c8.38.91,14.9,3.24,19.54,6.97,4.65,3.74,6.97,8.76,6.97,15.06,0,4.57-1.25,8.53-3.74,11.89-2.49,3.36-6.02,5.94-10.58,7.72-4.56,1.78-9.92,2.67-16.06,2.67Z"/>
        <path class="cls-1" d="M600.52,139.6c-5.89,0-11.02-.98-15.37-2.92-4.36-1.95-7.99-4.59-10.89-7.91-2.91-3.32-5.06-7.07-6.47-11.26-1.41-4.19-2.12-8.53-2.12-13.01v-2.37c0-4.65.75-9.11,2.24-13.38,1.49-4.27,3.69-8.07,6.6-11.39,2.9-3.32,6.54-5.93,10.89-7.84,4.36-1.91,9.36-2.86,15-2.86,6.14,0,11.58,1.18,16.31,3.55,4.73,2.37,8.51,5.66,11.33,9.9,2.54,3.81,4.07,8.12,4.59,12.94.09.87-.61,1.62-1.49,1.62h-16.65c-.73,0-1.32-.54-1.46-1.26-.5-2.53-1.66-4.7-3.48-6.52-2.12-2.12-5.17-3.17-9.15-3.17-3.32,0-6.08.83-8.28,2.49s-3.84,3.94-4.92,6.85c-1.08,2.91-1.62,6.35-1.62,10.33,0,3.65.5,6.95,1.49,9.9s2.59,5.23,4.79,6.85c2.2,1.62,5.08,2.43,8.65,2.43,2.65,0,4.92-.48,6.78-1.43,1.87-.95,3.36-2.28,4.48-3.98.91-1.37,1.53-2.93,1.86-4.65.14-.72.73-1.26,1.46-1.26h16.55c.86,0,1.57.74,1.49,1.6-.45,4.99-2,9.41-4.62,13.28-2.91,4.27-6.76,7.59-11.58,9.96-4.81,2.36-10.29,3.55-16.43,3.55Z"/>
        <path class="cls-1" d="M665.38,138.97c-4.9,0-9.19-.87-12.88-2.61-3.69-1.74-6.58-4.25-8.65-7.53-2.08-3.28-3.11-7.2-3.11-11.76,0-4.98,1.29-9.07,3.86-12.26,2.57-3.19,6.18-5.56,10.83-7.1,4.65-1.53,10-2.3,16.06-2.3h13.08c.82,0,1.48.66,1.48,1.48v8.12c0,.82-.66,1.48-1.48,1.48h-13.21c-3.49,0-6.16.85-8.03,2.55-1.87,1.7-2.8,4.01-2.8,6.91,0,2.74.93,4.96,2.8,6.66,1.87,1.7,4.54,2.55,8.03,2.55,2.24,0,4.25-.39,6.04-1.18,1.78-.79,3.26-2.14,4.42-4.05.78-1.27,1.33-2.88,1.66-4.82.21-1.23,1.69-1.72,2.54-.82l2.04,2.15c.3.32.45.76.41,1.2-.46,4.43-1.58,8.18-3.36,11.26-1.87,3.24-4.44,5.73-7.72,7.47-3.28,1.74-7.28,2.61-12.01,2.61ZM687.16,135.75v-17.2c0-.82-.66-1.48-1.48-1.48h-.4c-.82,0-1.48-.66-1.48-1.48v-20.43c0-3.49-.83-6.1-2.49-7.84-1.66-1.74-4.32-2.61-7.97-2.61-1.83,0-4.23.04-7.22.12-2.99.08-6.06.21-9.21.37-2.53.13-4.87.27-7.02.4-.85.05-1.57-.62-1.57-1.48v-13.86c0-.77.59-1.42,1.35-1.48,1.59-.13,3.38-.26,5.37-.38,2.57-.17,5.23-.29,7.97-.37,2.74-.08,5.31-.12,7.72-.12,6.97,0,12.84,1,17.61,2.99,4.77,1.99,8.4,5,10.89,9.02,2.49,4.03,3.73,9.19,3.73,15.5v40.34c0,.82-.66,1.48-1.48,1.48h-12.84c-.82,0-1.48-.66-1.48-1.48Z"/>
        <path class="cls-1" d="M748.03,139.47c-4.81,0-9.19-.87-13.13-2.61-3.94-1.74-7.37-4.17-10.27-7.28-2.91-3.11-5.12-6.78-6.66-11.02-1.54-4.23-2.3-8.8-2.3-13.69v-2.86c0-4.9.73-9.46,2.18-13.69s3.57-7.94,6.35-11.14c2.78-3.19,6.12-5.68,10.02-7.47,3.9-1.78,8.26-2.68,13.07-2.68,5.48,0,10.21,1.18,14.19,3.55,3.98,2.37,7.1,5.85,9.34,10.46,1.81,3.71,2.96,8.11,3.48,13.19.14,1.36-1.5,2.17-2.5,1.24l-2-1.86c-.3-.28-.47-.67-.47-1.09v-44.68c0-.82.66-1.48,1.48-1.48h17.08c.82,0,1.48.66,1.48,1.48v87.91c0,.82-.66,1.48-1.48,1.48h-12.84c-.82,0-1.48-.66-1.48-1.48v-26.78h2.74c-.25,6.47-1.6,11.99-4.05,16.56-2.45,4.57-5.75,8.03-9.9,10.39-4.15,2.37-8.92,3.55-14.32,3.55ZM753.01,122.79c3.07,0,5.87-.69,8.4-2.05,2.53-1.37,4.56-3.38,6.1-6.04,1.53-2.65,2.3-5.85,2.3-9.58v-4.61c0-3.65-.79-6.72-2.36-9.21-1.58-2.49-3.65-4.4-6.23-5.72-2.57-1.33-5.35-1.99-8.34-1.99-3.32,0-6.29.85-8.9,2.55-2.61,1.7-4.67,4.03-6.16,6.97-1.49,2.95-2.24,6.37-2.24,10.27s.75,7.43,2.24,10.33c1.49,2.91,3.57,5.15,6.23,6.72,2.65,1.58,5.64,2.37,8.96,2.37Z"/>
        <path class="cls-1" d="M838.65,139.6c-5.81,0-10.94-1-15.37-2.99-4.44-1.99-8.13-4.67-11.08-8.03-2.95-3.36-5.19-7.14-6.72-11.33-1.54-4.19-2.3-8.49-2.3-12.88v-2.49c0-4.56.77-8.94,2.3-13.13,1.53-4.19,3.75-7.95,6.66-11.27,2.9-3.32,6.54-5.95,10.89-7.9,4.36-1.95,9.31-2.93,14.87-2.93,7.3,0,13.47,1.64,18.49,4.92,5.02,3.28,8.86,7.55,11.51,12.82,2.66,5.27,3.98,11.02,3.98,17.24v5.24c0,.82-.66,1.48-1.48,1.48h-57.41c-.82,0-1.48-.66-1.48-1.48v-8.36c0-.82.66-1.48,1.48-1.48h42.62c1.4,0,2.02,1.76.93,2.64l-.92.74c-.93.75-2.31.14-2.4-1.05-.22-2.85-.76-5.37-1.64-7.55-1.16-2.9-2.88-5.12-5.16-6.66-2.28-1.53-5.13-2.3-8.53-2.3s-6.43.79-8.84,2.36c-2.41,1.58-4.23,3.88-5.48,6.91-1.25,3.03-1.87,6.74-1.87,11.14,0,4.07.58,7.62,1.74,10.64,1.16,3.03,2.99,5.37,5.48,7.03,2.49,1.66,5.72,2.49,9.71,2.49,3.65,0,6.64-.7,8.96-2.12,2-1.21,3.44-2.67,4.34-4.38.27-.51.76-.85,1.33-.85h15.46c.97,0,1.7.92,1.44,1.85-1.09,3.82-2.88,7.27-5.39,10.35-2.91,3.57-6.56,6.35-10.95,8.34-4.4,1.99-9.46,2.99-15.19,2.99Z"/>
        <path class="cls-1" d="M342.47,190.73v-11.6c0-.82.66-1.48,1.48-1.48h45.83c.82,0,1.48.66,1.48,1.48v11.6c0,.82-.66,1.48-1.48,1.48h-45.83c-.82,0-1.48-.66-1.48-1.48ZM381.68,246.73c-6.89,0-12.45-.85-16.68-2.55s-7.32-4.56-9.27-8.59c-1.95-4.02-2.93-9.48-2.93-16.37v-58.52c0-.82.66-1.48,1.48-1.48h15.58c.82,0,1.48.66,1.48,1.48v59.26c0,3.24.85,5.71,2.55,7.41,1.7,1.7,4.13,2.55,7.28,2.55h8.6c.82,0,1.48.66,1.48,1.48v13.84c0,.82-.66,1.48-1.48,1.48h-8.1Z"/>
        <path class="cls-1" d="M404.71,244.38v-87.91c0-.82.66-1.48,1.48-1.48h16.95c.82,0,1.48.66,1.48,1.48v49.44c0,.82-.66,1.48-1.48,1.48h0c-.83,0-1.51-.69-1.49-1.52.12-6.23.99-11.53,2.6-15.91,1.74-4.73,4.31-8.32,7.72-10.77,3.4-2.45,7.67-3.67,12.82-3.67h.87c7.55,0,13.32,2.68,17.3,8.03,3.98,5.35,5.98,13.18,5.98,23.47v37.36c0,.82-.66,1.48-1.48,1.48h-16.95c-.82,0-1.48-.66-1.48-1.48v-38.6c0-3.74-1.1-6.74-3.3-9.03-2.2-2.28-5.08-3.42-8.65-3.42s-6.74,1.2-9.03,3.61c-2.28,2.41-3.42,5.6-3.42,9.59v37.85c0,.82-.66,1.48-1.48,1.48h-16.95c-.82,0-1.48-.66-1.48-1.48Z"/>
        <path class="cls-1" d="M517.12,248.23c-5.81,0-10.94-1-15.37-2.99-4.44-1.99-8.13-4.67-11.08-8.03-2.95-3.36-5.19-7.14-6.72-11.33-1.54-4.19-2.3-8.49-2.3-12.88v-2.49c0-4.56.77-8.94,2.3-13.13,1.53-4.19,3.75-7.95,6.66-11.27,2.9-3.32,6.54-5.95,10.89-7.9,4.36-1.95,9.32-2.92,14.88-2.92,7.3,0,13.46,1.64,18.49,4.92,5.02,3.28,8.86,7.55,11.52,12.82,2.65,5.27,3.98,11.02,3.98,17.24v5.24c0,.82-.66,1.48-1.48,1.48h-57.41c-.82,0-1.48-.66-1.48-1.48v-8.36c0-.82.66-1.48,1.48-1.48h42.62c1.4,0,2.02,1.76.93,2.64l-.92.74c-.93.75-2.31.14-2.4-1.05-.22-2.85-.76-5.37-1.64-7.55-1.16-2.9-2.88-5.12-5.17-6.66-2.28-1.53-5.12-2.3-8.53-2.3s-6.43.79-8.84,2.36c-2.41,1.58-4.23,3.88-5.48,6.91-1.25,3.03-1.87,6.74-1.87,11.14,0,4.07.58,7.62,1.74,10.64,1.16,3.03,2.99,5.37,5.48,7.03,2.49,1.66,5.73,2.49,9.71,2.49,3.65,0,6.64-.7,8.96-2.12,2-1.21,3.44-2.67,4.34-4.38.27-.51.76-.85,1.33-.85h15.46c.97,0,1.7.92,1.44,1.85-1.09,3.82-2.88,7.27-5.39,10.35-2.91,3.57-6.56,6.35-10.95,8.34-4.4,1.99-9.46,2.99-15.19,2.99Z"/>
        <path class="cls-1" d="M596.78,248.23c-5.97,0-11.29-.93-15.93-2.8-4.65-1.87-8.57-4.42-11.76-7.65-3.2-3.24-5.62-6.95-7.28-11.14-1.66-4.19-2.49-8.61-2.49-13.26v-2.86c0-4.73.85-9.23,2.55-13.51,1.7-4.27,4.19-8.03,7.47-11.27s7.24-5.79,11.89-7.65c4.65-1.87,9.83-2.8,15.56-2.8s11.14.93,15.75,2.8c4.61,1.87,8.53,4.42,11.77,7.65,3.24,3.24,5.73,6.99,7.47,11.27,1.74,4.28,2.62,8.78,2.62,13.51v2.86c0,4.65-.83,9.07-2.49,13.26-1.66,4.19-4.09,7.9-7.28,11.14-3.19,3.24-7.12,5.79-11.76,7.65-4.65,1.87-10,2.8-16.06,2.8ZM596.78,231.42c3.9,0,7.14-.83,9.71-2.49,2.57-1.66,4.55-3.98,5.91-6.97,1.37-2.99,2.06-6.31,2.06-9.96,0-3.9-.71-7.32-2.12-10.27-1.41-2.95-3.42-5.29-6.04-7.03-2.61-1.74-5.79-2.61-9.52-2.61s-6.8.87-9.46,2.61c-2.66,1.74-4.67,4.09-6.04,7.03-1.37,2.95-2.06,6.37-2.06,10.27,0,3.65.67,6.97,1.99,9.96,1.33,2.99,3.32,5.31,5.98,6.97,2.65,1.66,5.85,2.49,9.58,2.49Z"/>
        <path class="cls-1" d="M648.32,244.38v-65.25c0-.82.66-1.48,1.48-1.48h12.85c.82,0,1.48.66,1.48,1.48v27.77h-.38c0-9.63,2.05-17.05,6.16-22.28,4.11-5.23,10.06-7.84,17.86-7.84h2.62v15.7c0,.82-.66,1.48-1.48,1.48h-3.5c-5.48,0-9.71,1.47-12.7,4.42-2.99,2.95-4.48,7.2-4.48,12.76v33.25c0,.82-.66,1.48-1.48,1.48h-16.95c-.82,0-1.48-.66-1.48-1.48Z"/>
        <path class="cls-1" d="M714.96,243.33l-19.98-63.76c-.3-.95.41-1.93,1.41-1.93h16.92c.66,0,1.23.43,1.42,1.06l18.91,63.76c.28.95-.43,1.9-1.42,1.9h-15.85c-.65,0-1.22-.42-1.41-1.04ZM702.1,271.39v-13.97c0-.82.66-1.48,1.48-1.48h12.71c2.16,0,3.98-.27,5.48-.81,1.49-.54,2.7-1.43,3.61-2.68.91-1.25,1.66-2.95,2.24-5.1l16.53-68.57c.16-.67.76-1.13,1.44-1.13h15.84c.97,0,1.68.91,1.44,1.85l-18.57,71.84c-1.33,5.31-3.18,9.54-5.54,12.7-2.37,3.15-5.52,5.42-9.46,6.78-3.94,1.37-8.94,2.05-15,2.05h-10.72c-.82,0-1.48-.66-1.48-1.48ZM723.51,242.89v-12.59c0-.82.66-1.48,1.48-1.48h11.48c.82,0,1.48.66,1.48,1.48v12.59c0,.82-.66,1.48-1.48,1.48h-11.48c-.82,0-1.48-.66-1.48-1.48Z"/>
      </g>
      <g>
        <path class="cls-3" d="M65.56,164.58c-.2-2.45-.29-4.95-.29-7.42,0-24.55,9.57-47.63,26.93-64.99,17.36-17.35,40.43-26.91,64.98-26.91h.02c14.57,0,29.07,3.5,41.95,10.12,11.27,5.79,21.37,14,29.39,23.85,1.37,1.68,1.05,4.16-.69,5.46l-10.32,7.68c-1.63,1.21-3.91.92-5.2-.64-13.63-16.57-33.53-26-55.13-26.01h-.01c-39.4,0-71.45,32.04-71.45,71.44,0,1.93.08,3.88.23,5.79l-20.39,1.63Z"/>
        <path class="cls-3" d="M119.02,185.46c-6.79-9.14-10.02-20.19-9.22-31.7.68-9.86,4.48-19.33,10.82-26.92,9.21-11.02,22.41-17.16,36.56-17.16h0c7.53,0,15.02,1.81,21.68,5.23,5.2,2.67,9.91,6.33,13.81,10.71,1.49,1.67,1.24,4.27-.56,5.61l-10.36,7.71c-1.53,1.14-3.68.97-5-.42-5.08-5.36-12.05-8.38-19.57-8.38h0c-4.95,0-9.85,1.27-14.04,3.89-8.29,5.19-12.99,13.8-12.99,23.14,0,5.85,1.83,11.42,5.31,16.1l-16.43,12.2Z"/>
        <path class="cls-2" d="M267.73,226.61l-3.1-2.33-103.67-77.04c-2.24-1.67-5.31-1.67-7.56,0l-41.38,30.73-36.22-26.91-33.17,24.31c-.94-5.93-1.44-12.01-1.44-18.21.01-63.95,52.04-115.97,115.99-115.97h.02c35.82,0,68.74,15.97,90.88,43.94,1.27,1.6,3.59,1.89,5.23.67l10.32-7.67c1.73-1.29,2.03-3.75.7-5.44-12.1-15.31-27.54-28.03-44.85-36.93-19.11-9.82-40.64-15.02-62.27-15.02h-.02c-18.41,0-36.27,3.61-53.09,10.72-16.25,6.87-30.84,16.7-43.37,29.23-12.53,12.53-22.37,27.11-29.24,43.36-7.12,16.83-10.73,34.7-10.74,53.11,0,18.42,3.6,36.29,10.72,53.12,6.87,16.25,16.7,30.84,29.23,43.37,12.53,12.53,27.11,22.37,43.36,29.24,16.83,7.12,34.7,10.73,53.11,10.74h.02c21.62,0,43.15-5.19,62.25-15,18.48-9.49,34.83-23.34,47.27-40.05l2.32-3.11c2.08-2.8,1.51-6.76-1.28-8.85ZM56.15,214.13c-2.67-4.71-5.02-9.63-7.01-14.73-.62-1.59-.07-3.4,1.31-4.41l23-16.85c1.35-.99,3.18-.98,4.51.02l12.79,9.5c2.05,1.52,2.05,4.58,0,6.1l-29.01,21.54c-1.84,1.36-4.46.81-5.58-1.18ZM240.91,237.47c-21.79,22.84-51.59,35.69-83.73,35.69h-.02c-32.85,0-62.55-13.74-83.67-35.76-1.59-1.65-1.36-4.33.48-5.69l80.94-60.11c1.35-1,3.19-1,4.53,0l80.99,60.18c1.84,1.37,2.06,4.04.48,5.69Z"/>
        <path class="cls-3" d="M156.66,198.16l-6.97,48.16c-.34,2.36,2.39,3.93,4.25,2.44l21.98-17.57c.59-.47,1.35-.67,2.09-.54l31.19,5.36c2.73.47,4.24-3.06,2.02-4.71l-48.11-35.82c-2.47-1.84-6.01-.37-6.45,2.68Z"/>
      </g>
    </g>
  </g>
</svg>