<?xml version="1.0" encoding="UTF-8"?>
<svg id="Layer_2" xmlns="http://www.w3.org/2000/svg" viewBox="0 0 314.35 314.35">
  <defs>
    <style>
      .cls-1 {
        fill: #fff;
      }

      .cls-2 {
        fill: #1a6172;
      }

      .cls-3 {
        fill: #e86c46;
      }
    </style>
  </defs>
  <g id="Layer_1-2" data-name="Layer_1">
    <g>
      <circle class="cls-1" cx="157.17" cy="157.17" r="157.17"/>
      <g>
        <path class="cls-3" d="M65.56,164.58c-.2-2.45-.29-4.95-.29-7.42,0-24.55,9.57-47.63,26.93-64.99,17.36-17.35,40.43-26.91,64.98-26.91h.02c14.57,0,29.07,3.5,41.95,10.12,11.27,5.79,21.37,14,29.39,23.85,1.37,1.68,1.05,4.16-.69,5.46l-10.32,7.68c-1.63,1.21-3.91.92-5.2-.64-13.63-16.57-33.53-26-55.13-26.01h-.01c-39.4,0-71.45,32.04-71.45,71.44,0,1.93.08,3.88.23,5.79l-20.39,1.63Z"/>
        <path class="cls-3" d="M119.02,185.46c-6.79-9.14-10.02-20.19-9.22-31.7.68-9.86,4.48-19.33,10.82-26.92,9.21-11.02,22.41-17.16,36.56-17.16h0c7.53,0,15.02,1.81,21.68,5.23,5.2,2.67,9.91,6.33,13.81,10.71,1.49,1.67,1.24,4.27-.56,5.61l-10.36,7.71c-1.53,1.14-3.68.97-5-.42-5.08-5.36-12.05-8.38-19.57-8.38h0c-4.95,0-9.85,1.27-14.04,3.89-8.29,5.19-12.99,13.8-12.99,23.14,0,5.85,1.83,11.42,5.31,16.1l-16.43,12.2Z"/>
        <path class="cls-2" d="M267.73,226.61l-3.1-2.33-103.67-77.04c-2.24-1.67-5.31-1.67-7.56,0l-41.38,30.73-36.22-26.91-33.17,24.31c-.94-5.93-1.44-12.01-1.44-18.21.01-63.95,52.04-115.97,115.99-115.97h.02c35.82,0,68.74,15.97,90.88,43.94,1.27,1.6,3.59,1.89,5.23.67l10.32-7.67c1.73-1.29,2.03-3.75.7-5.44-12.1-15.31-27.54-28.03-44.85-36.93-19.11-9.82-40.64-15.02-62.27-15.02h-.02c-18.41,0-36.27,3.61-53.09,10.72-16.25,6.87-30.84,16.7-43.37,29.23-12.53,12.53-22.37,27.11-29.24,43.36-7.12,16.83-10.73,34.7-10.74,53.11,0,18.42,3.6,36.29,10.72,53.12,6.87,16.25,16.7,30.84,29.23,43.37,12.53,12.53,27.11,22.37,43.36,29.24,16.83,7.12,34.7,10.73,53.11,10.74h.02c21.62,0,43.15-5.19,62.25-15,18.48-9.49,34.83-23.34,47.27-40.05l2.32-3.11c2.08-2.8,1.51-6.76-1.28-8.85ZM56.15,214.13c-2.67-4.71-5.02-9.63-7.01-14.73-.62-1.59-.07-3.4,1.31-4.41l23-16.85c1.35-.99,3.18-.98,4.51.02l12.79,9.5c2.05,1.52,2.05,4.58,0,6.1l-29.01,21.54c-1.84,1.36-4.46.81-5.58-1.18ZM240.91,237.47c-21.79,22.84-51.59,35.69-83.73,35.69h-.02c-32.85,0-62.55-13.74-83.67-35.76-1.59-1.65-1.36-4.33.48-5.69l80.94-60.11c1.35-1,3.19-1,4.53,0l80.99,60.18c1.84,1.37,2.06,4.04.48,5.69Z"/>
        <path class="cls-3" d="M156.66,198.16l-6.97,48.16c-.34,2.36,2.39,3.93,4.25,2.44l21.98-17.57c.59-.47,1.35-.67,2.09-.54l31.19,5.36c2.73.47,4.24-3.06,2.02-4.71l-48.11-35.82c-2.47-1.84-6.01-.37-6.45,2.68Z"/>
      </g>
    </g>
  </g>
</svg>